<svg version="1.1" xmlns="http://www.w3.org/2000/svg" xmlns:xlink="http://www.w3.org/1999/xlink" width="500" height="500"><defs><linearGradient x1="250" y1="165.87788" x2="250" y2="334.12212" gradientUnits="userSpaceOnUse" id="color-1"><stop offset="0" stop-color="#041a05"></stop><stop offset="1" stop-color="#052206"></stop></linearGradient></defs><g data-paper-data="{&quot;description&quot;:&quot;Logo for save for happiness\n===========================\n\nThis logo was generated by MarkMaker at http://emblemmatic.org/markmaker/ and may be composed of elements designed by others.\n\nThe font is Imprima designed by Eduardo Tunni and released under the OFL license via Google Fonts: https://www.google.com/fonts/specimen/Imprima. The font includes this copyright statement: Copyright (c) 2012, Eduardo Tunni (http://www.tipo.net.ar edu@tipo.net.ar), with Reserved Font Name \\\&quot;Imprima\\\n\nMarkMaker uses semantic data from the Princeton University WordNet database http://wordnet.princeton.edu and font descriptions from Google Fonts https://www.google.com/fonts.&quot;}" fill="url(#color-1)" fill-rule="nonzero" stroke="none" stroke-width="1" stroke-linecap="butt" stroke-linejoin="miter" stroke-miterlimit="10" stroke-dasharray="" stroke-dashoffset="0" font-family="none" font-weight="none" font-size="none" text-anchor="none" style="mix-blend-mode: normal"><g data-paper-data="{&quot;elementType&quot;:&quot;logo&quot;}"><g data-paper-data="{&quot;elementType&quot;:&quot;text&quot;}"><g data-paper-data="{&quot;baseline&quot;:51.400000000000006}"><g data-paper-data="{&quot;baselineProportion&quot;:0.9734848484848484,&quot;fontSize&quot;:100,&quot;baseline&quot;:51.400000000000006,&quot;elementType&quot;:&quot;word&quot;}"><path d="M87.52665,263.74569c6.25444,0 11.51386,-1.49254 15.77825,-4.47761c4.26439,-2.98507 6.39659,-6.71642 6.39659,-11.19403c0,-4.47761 -1.20824,-8.03127 -3.62473,-10.66098c-2.41649,-2.62971 -5.01066,-4.51315 -7.78252,-5.65032c-2.77186,-1.13717 -6.71642,-2.45203 -11.83369,-3.94456c-5.11727,-1.49254 -9.0263,-2.77186 -11.72708,-3.83795c-2.70078,-1.0661 -5.89908,-2.73632 -9.59488,-5.01066c-6.96517,-4.26439 -10.44776,-11.5494 -10.44776,-21.85501c0,-10.30561 3.48259,-18.08813 10.44776,-23.34755c6.96517,-5.25942 15.13859,-7.88913 24.52026,-7.88913c5.828,0 11.69154,0.78181 17.59062,2.34542c5.89908,1.56361 10.34115,3.19829 13.32623,4.90405l-5.97015,13.0064c-6.82303,-3.69581 -15.13859,-5.54371 -24.9467,-5.54371c-4.97512,0 -9.34613,1.31485 -13.11301,3.94456c-3.76688,2.62971 -5.65032,5.97015 -5.65032,10.02132c0,4.05117 1.13717,7.21393 3.41151,9.48827c2.27434,2.27434 4.61976,3.90903 7.03625,4.90405c2.41649,0.99502 6.1123,2.20327 11.08742,3.62473c4.97512,1.42146 8.99076,2.73632 12.04691,3.94456c3.05615,1.20824 6.5032,3.09168 10.34115,5.65032c7.39161,4.97512 11.08742,12.82871 11.08742,23.56077c0,10.73205 -3.66027,18.86994 -10.98081,24.41365c-7.32054,5.54371 -16.45345,8.31557 -27.39872,8.31557c-14.78323,0 -27.29211,-4.7619 -37.52665,-14.28571l8.742,-11.72708c7.81805,7.53376 17.41294,11.30064 28.78465,11.30064z" data-paper-data="{&quot;elementType&quot;:&quot;letter&quot;,&quot;baseline&quot;:51.400000000000006,&quot;baselineProportion&quot;:0.9734848484848484,&quot;fontSize&quot;:100}"></path><path d="M184.7548,278.45784c-12.22459,0 -22.24591,-4.61976 -30.06397,-13.85928c-7.81805,-9.23952 -11.72708,-22.56574 -11.72708,-39.97868c0,-17.41294 4.93959,-31.5565 14.81876,-42.4307c9.87918,-10.8742 22.17484,-16.3113 36.88699,-16.3113c14.71215,0 27.96731,4.12225 39.76546,12.36674v75.90618l2.1322,21.32196l-14.07249,1.0661l-3.62473,-19.18977c-7.9602,14.07249 -19.33191,21.10874 -34.11514,21.10874M159.16844,224.19345c0,0 0,3.21606 0,9.64819c0,6.43213 2.70078,13.0597 8.10235,19.88273c5.40156,6.82303 12.3312,10.23454 20.78891,10.23454c8.45771,0 15.60057,-4.22886 21.42857,-12.68657c5.828,-8.45771 8.742,-20.43355 8.742,-35.92751v-29.63753c-7.10732,-3.55366 -14.71215,-5.33049 -22.8145,-5.33049c-10.51883,0 -19.18977,4.08671 -26.01279,12.26013c-6.82303,8.17342 -10.23454,18.69225 -10.23454,31.5565z" data-paper-data="{&quot;elementType&quot;:&quot;letter&quot;,&quot;baseline&quot;:51.400000000000006,&quot;baselineProportion&quot;:0.9734848484848484,&quot;fontSize&quot;:100}"></path><path d="M272.17484,168.86296l31.98294,88.0597l31.76972,-88.0597h17.27079l-39.65885,106.60981h-19.18977l-39.65885,-106.60981z" data-paper-data="{&quot;elementType&quot;:&quot;letter&quot;,&quot;baseline&quot;:50,&quot;baselineProportion&quot;:1,&quot;fontSize&quot;:100}"></path><path d="M407.99574,278.45784c-12.79318,0 -23.34755,-4.47761 -31.66311,-13.43284c-8.31557,-8.95522 -12.47335,-22.10377 -12.47335,-39.44563c0,-17.34186 4.90405,-31.62758 14.71215,-42.85714c9.8081,-11.22957 22.53021,-16.84435 38.16631,-16.84435c9.95025,0 17.98152,3.02061 24.09382,9.06183c6.1123,6.04122 9.16844,13.57498 9.16844,22.60128c0,9.0263 -4.65529,17.30633 -13.96588,24.84009c-9.31059,7.53376 -22.85004,11.30064 -40.61834,11.30064c-4.69083,0 -9.66596,-0.21322 -14.92537,-0.63966c0.99502,10.0924 4.08671,17.7683 9.27505,23.02772c5.18834,5.25942 11.47832,7.88913 18.86994,7.88913c12.36674,0 22.67235,-3.83795 30.91684,-11.51386l7.67591,10.44776c-10.80313,10.37669 -23.8806,15.56503 -39.23241,15.56503M416.09808,180.37682c-9.8081,0 -17.94598,3.48259 -24.41365,10.44776c-6.46766,6.96517 -10.27008,16.20469 -11.40725,27.71855c4.69083,0.71073 9.87918,1.0661 15.56503,1.0661c12.22459,0 21.60625,-2.27434 28.14499,-6.82303c6.53873,-4.54869 9.8081,-9.8081 9.8081,-15.77825c0,-4.40654 -1.59915,-8.28003 -4.79744,-11.62047c-3.19829,-3.34044 -7.49822,-5.01066 -12.89979,-5.01066z" data-paper-data="{&quot;elementType&quot;:&quot;letter&quot;,&quot;baseline&quot;:51.400000000000006,&quot;baselineProportion&quot;:0.9734848484848484,&quot;fontSize&quot;:100}"></path></g></g><g data-paper-data="{&quot;baseline&quot;:22.972588429091672,&quot;elementType&quot;:&quot;row&quot;}"><g data-paper-data="{&quot;baselineProportion&quot;:0.816933638443936,&quot;fontSize&quot;:100,&quot;baseline&quot;:71.4,&quot;elementType&quot;:&quot;word&quot;}"><path d="M50,288.84458v-4.45915h4.45915v-3.49872c0,-3.88747 0.81179,-6.72303 2.43538,-8.50669c1.62359,-1.78366 3.75026,-2.67549 6.38002,-2.67549c2.62976,0 5.36242,0.9147 8.19798,2.74409l-2.05807,3.70453c-2.37821,-1.0519 -4.23048,-1.57785 -5.55679,-1.57785c-2.78983,0 -4.18474,2.01234 -4.18474,6.03701v3.77313h7.88927v4.45915h-7.88927v40.81839h-5.21378v-40.81839z" data-paper-data="{&quot;elementType&quot;:&quot;letter&quot;,&quot;baseline&quot;:71.4,&quot;baselineProportion&quot;:0.816933638443936,&quot;fontSize&quot;:100}"></path><path d="M75.24566,314.60475c0,0 -0.62885,-0.84038 -1.88656,-2.52114c-1.25771,-1.68076 -1.88656,-5.19663 -1.88656,-10.54761c0,-5.35098 1.25771,-9.70723 3.77313,-13.06874c2.51542,-3.36151 6.27711,-5.04227 11.28508,-5.04227c5.00797,0 8.79253,1.68076 11.35369,5.04227c2.56115,3.36151 3.84173,7.71776 3.84173,13.06874c0,5.35098 -1.28058,9.70723 -3.84173,13.06874c-2.56115,3.36151 -6.34572,5.04227 -11.35369,5.04227c-5.00797,0 -8.76966,-1.68076 -11.28508,-5.04227M79.15599,291.82878c0,0 -0.41161,0.62314 -1.23484,1.86941c-0.82323,1.24628 -1.23484,3.85888 -1.23484,7.83782c0,3.97894 0.82323,7.21468 2.46968,9.70723c1.64646,2.49255 4.11614,3.73883 7.40905,3.73883c3.29291,0 5.77403,-1.24628 7.44335,-3.73883c1.66932,-2.49255 2.50399,-5.72829 2.50399,-9.70723c0,-3.97894 -0.83466,-7.21468 -2.50399,-9.70723c-1.66932,-2.49255 -4.15044,-3.73883 -7.44335,-3.73883c-3.29291,0 -5.7626,1.24628 -7.40905,3.73883z" data-paper-data="{&quot;elementType&quot;:&quot;letter&quot;,&quot;baseline&quot;:51.400000000000006,&quot;baselineProportion&quot;:0.9734848484848484,&quot;fontSize&quot;:100}"></path><path d="M116.20125,318.68659h-5.21378v-27.44093l-0.68602,-6.86023l4.52775,-0.34301l1.37205,8.23228c1.37205,-2.83556 3.10997,-4.9851 5.21378,-6.44862c2.1038,-1.46352 4.39055,-2.19527 6.86023,-2.19527l0.34301,5.21378c-8.04934,0.64029 -12.18835,6.79163 -12.41702,18.45403z" data-paper-data="{&quot;elementType&quot;:&quot;letter&quot;,&quot;baseline&quot;:51.1,&quot;baselineProportion&quot;:1,&quot;fontSize&quot;:100}"></path></g><g data-paper-data="{&quot;baselineProportion&quot;:0.7567567567567568,&quot;fontSize&quot;:100,&quot;baseline&quot;:70,&quot;elementType&quot;:&quot;word&quot;}"><path d="M182.2451,318.68659h-5.21378v-20.85511c0,-6.49435 -2.30961,-9.74153 -6.92884,-9.74153c-2.65262,0 -5.06514,1.37205 -7.23755,4.11614c-2.17241,2.74409 -3.32721,6.51722 -3.46442,11.31938v15.16112h-5.21378v-48.02163h5.21378v20.37489c1.37205,-2.46968 3.09854,-4.35625 5.17948,-5.65969c2.08094,-1.30344 4.21904,-1.95517 6.41432,-1.95517c7.50052,0 11.25078,4.80216 11.25078,14.40649z" data-paper-data="{&quot;elementType&quot;:&quot;letter&quot;,&quot;baseline&quot;:70,&quot;baselineProportion&quot;:1,&quot;fontSize&quot;:100}"></path><path d="M203.92344,319.64702c-3.9332,0 -7.15751,-1.48638 -9.67293,-4.45915c-2.51542,-2.97277 -3.77313,-7.26041 -3.77313,-12.86294c0,-5.60252 1.58929,-10.15315 4.76786,-13.65186c3.17857,-3.49872 7.13464,-5.24808 11.8682,-5.24808c4.73356,0 8.99834,1.32631 12.79433,3.97894v24.42243l0.68602,6.86023l-4.52775,0.34301l-1.16624,-6.17421c-2.56115,4.52775 -6.21994,6.79163 -10.97637,6.79163M195.69116,302.18773c0,0 0,1.03475 0,3.10426c0,2.0695 0.86896,4.20189 2.60689,6.39717c1.73793,2.19527 3.9675,3.29291 6.68873,3.29291c2.72123,0 5.0194,-1.36061 6.89453,-4.08184c1.87513,-2.72123 2.8127,-6.57439 2.8127,-11.55949v-9.53572c-2.28674,-1.14337 -4.73356,-1.71506 -7.34045,-1.71506c-3.38438,0 -6.17421,1.31488 -8.36948,3.94463c-2.19527,2.62976 -3.29291,6.01414 -3.29291,10.15315z" data-paper-data="{&quot;elementType&quot;:&quot;letter&quot;,&quot;baseline&quot;:51.400000000000006,&quot;baselineProportion&quot;:0.9734848484848484,&quot;fontSize&quot;:100}"></path><path d="M247.89753,283.42499c3.9332,0 7.15751,1.48638 9.67293,4.45915c2.51542,2.97277 3.77313,7.26041 3.77313,12.86294c0,5.60252 -1.58929,10.15315 -4.76786,13.65186c-3.17857,3.49872 -7.21468,5.24808 -12.10831,5.24808c-2.42395,0 -4.87077,-0.43448 -7.34045,-1.30344v15.77854h-5.21378v-42.87646l-0.68602,-6.86023l4.52775,-0.34301l1.16624,6.31141c2.56115,-4.61922 6.21994,-6.92884 10.97637,-6.92884M256.12981,300.88429c0,0 0,-1.03475 0,-3.10426c0,-2.0695 -0.86896,-4.20189 -2.60689,-6.39717c-1.73793,-2.19527 -3.94463,-3.29291 -6.62013,-3.29291c-2.67549,0 -4.9508,1.30344 -6.82593,3.91033c-1.87513,2.60689 -2.85843,6.33428 -2.9499,11.18218v9.87874c2.37821,1.28058 4.82503,1.92087 7.34045,1.92087c3.38438,0 6.17421,-1.31488 8.36948,-3.94463c2.19527,-2.62976 3.29291,-6.01414 3.29291,-10.15315z" data-paper-data="{&quot;elementType&quot;:&quot;letter&quot;,&quot;baseline&quot;:51.400000000000006,&quot;baselineProportion&quot;:0.6955345060893099,&quot;fontSize&quot;:100}"></path><path d="M286.58925,283.42499c3.9332,0 7.15751,1.48638 9.67293,4.45915c2.51542,2.97277 3.77313,7.26041 3.77313,12.86294c0,5.60252 -1.58929,10.15315 -4.76786,13.65186c-3.17857,3.49872 -7.21468,5.24808 -12.10831,5.24808c-2.42395,0 -4.87077,-0.43448 -7.34045,-1.30344v15.77854h-5.21378v-42.87646l-0.68602,-6.86023l4.52775,-0.34301l1.16624,6.31141c2.56115,-4.61922 6.21994,-6.92884 10.97637,-6.92884M294.82153,300.88429c0,0 0,-1.03475 0,-3.10426c0,-2.0695 -0.86896,-4.20189 -2.60689,-6.39717c-1.73793,-2.19527 -3.94463,-3.29291 -6.62013,-3.29291c-2.67549,0 -4.9508,1.30344 -6.82593,3.91033c-1.87513,2.60689 -2.85843,6.33428 -2.9499,11.18218v9.87874c2.37821,1.28058 4.82503,1.92087 7.34045,1.92087c3.38438,0 6.17421,-1.31488 8.36948,-3.94463c2.19527,-2.62976 3.29291,-6.01414 3.29291,-10.15315z" data-paper-data="{&quot;elementType&quot;:&quot;letter&quot;,&quot;baseline&quot;:51.400000000000006,&quot;baselineProportion&quot;:0.6955345060893099,&quot;fontSize&quot;:100}"></path><path d="M309.63963,318.68659v-34.30117h5.21378v34.30117zM309.77683,276.87347c0,0 -0.1372,-0.15436 -0.41161,-0.46307c-0.27441,-0.30871 -0.41161,-0.94328 -0.41161,-1.90371c0,-0.96043 0.27441,-1.74936 0.82323,-2.36678c0.54882,-0.61742 1.34918,-0.92613 2.40108,-0.92613c1.0519,0 1.87513,0.32014 2.46968,0.96043c0.59455,0.64029 0.89183,1.41778 0.89183,2.33248c0,0.9147 -0.29728,1.69219 -0.89183,2.33248c-0.59455,0.64029 -1.41778,0.96043 -2.46968,0.96043c-1.0519,0 -1.85226,-0.30871 -2.40108,-0.92613" data-paper-data="{&quot;elementType&quot;:&quot;letter&quot;,&quot;baseline&quot;:69.2,&quot;baselineProportion&quot;:1,&quot;fontSize&quot;:100}"></path><path d="M343.66639,283.42499c7.50052,0 11.25078,4.80216 11.25078,14.40649v20.85511h-5.21378v-20.85511c0,-6.49435 -2.30961,-9.74153 -6.92884,-9.74153c-2.65262,0 -5.06514,1.37205 -7.23755,4.11614c-2.17241,2.74409 -3.32721,6.51722 -3.46442,11.31938v15.16112h-5.21378v-27.44093l-0.68602,-6.86023l4.52775,-0.34301l1.30344,7.06604c1.41778,-2.46968 3.17857,-4.36768 5.28238,-5.69399c2.1038,-1.32631 4.23048,-1.98947 6.38002,-1.98947z" data-paper-data="{&quot;elementType&quot;:&quot;letter&quot;,&quot;baseline&quot;:51.400000000000006,&quot;baselineProportion&quot;:1,&quot;fontSize&quot;:100}"></path><path d="M377.35013,319.64702c-4.11614,0 -7.51196,-1.44065 -10.18745,-4.32195c-2.67549,-2.8813 -4.01324,-7.11178 -4.01324,-12.69143c0,-5.57966 1.57785,-10.17601 4.73356,-13.78907c3.15571,-3.61306 7.24898,-5.41958 12.27982,-5.41958c3.20144,0 5.78546,0.97187 7.75206,2.9156c1.9666,1.94373 2.9499,4.36768 2.9499,7.27185c0,2.90417 -1.49782,5.56822 -4.49345,7.99217c-2.99564,2.42395 -7.35188,3.63592 -13.06874,3.63592c-1.50925,0 -3.10997,-0.0686 -4.80216,-0.20581c0.32014,3.24718 1.31488,5.71686 2.9842,7.40905c1.66932,1.69219 3.69309,2.53829 6.07131,2.53829c3.97894,0 7.29471,-1.23484 9.94734,-3.70453l2.46968,3.36151c-3.47585,3.33865 -7.68346,5.00797 -12.62283,5.00797M379.95702,288.08995c-3.15571,0 -5.77403,1.1205 -7.85497,3.36151c-2.08094,2.24101 -3.30435,5.21378 -3.67022,8.9183c1.50925,0.22867 3.17857,0.34301 5.00797,0.34301c3.9332,0 6.9517,-0.73176 9.05551,-2.19527c2.1038,-1.46352 3.15571,-3.15571 3.15571,-5.07657c0,-1.41778 -0.51452,-2.66406 -1.54355,-3.73883c-1.02903,-1.07477 -2.41252,-1.61215 -4.15044,-1.61215z" data-paper-data="{&quot;elementType&quot;:&quot;letter&quot;,&quot;baseline&quot;:51.400000000000006,&quot;baselineProportion&quot;:0.9734848484848484,&quot;fontSize&quot;:100}"></path><path d="M408.08398,314.91346c2.01234,0 3.70453,-0.48022 5.07657,-1.44065c1.37205,-0.96043 2.05807,-2.16097 2.05807,-3.60162c0,-1.44065 -0.38875,-2.58402 -1.16624,-3.43012c-0.77749,-0.8461 -1.61215,-1.45208 -2.50399,-1.81796c-0.89183,-0.36588 -2.16097,-0.78893 -3.80743,-1.26914c-1.64646,-0.48022 -2.90417,-0.89183 -3.77313,-1.23484c-0.86896,-0.34301 -1.898,-0.8804 -3.0871,-1.61215c-2.24101,-1.37205 -3.36151,-3.71596 -3.36151,-7.03174c0,-3.31578 1.1205,-5.81976 3.36151,-7.51196c2.24101,-1.69219 4.87077,-2.53829 7.88927,-2.53829c1.87513,0 3.76169,0.25154 5.65969,0.75463c1.898,0.50308 3.32721,1.02903 4.28765,1.57785l-1.92087,4.18474c-2.19527,-1.18911 -4.87077,-1.78366 -8.02647,-1.78366c-1.60072,0 -3.00707,0.42305 -4.21904,1.26914c-1.21197,0.8461 -1.81796,1.92087 -1.81796,3.22431c0,1.30344 0.36588,2.32105 1.09764,3.0528c0.73176,0.73176 1.48638,1.25771 2.26388,1.57785c0.77749,0.32014 1.9666,0.70889 3.56732,1.16624c1.60072,0.45735 2.89273,0.8804 3.87603,1.26914c0.9833,0.38875 2.09237,0.99473 3.32721,1.81796c2.37821,1.60072 3.56732,4.12757 3.56732,7.58056c0,3.45298 -1.17767,6.07131 -3.53302,7.85497c-2.35535,1.78366 -5.29381,2.67549 -8.8154,2.67549c-4.75643,0 -8.7811,-1.53212 -12.07401,-4.59636l2.8127,-3.77313c2.51542,2.42395 5.60252,3.63592 9.26131,3.63592z" data-paper-data="{&quot;elementType&quot;:&quot;letter&quot;,&quot;baseline&quot;:51.400000000000006,&quot;baselineProportion&quot;:0.9734848484848484,&quot;fontSize&quot;:100}"></path><path d="M437.65158,314.91346c2.01234,0 3.70453,-0.48022 5.07657,-1.44065c1.37205,-0.96043 2.05807,-2.16097 2.05807,-3.60162c0,-1.44065 -0.38875,-2.58402 -1.16624,-3.43012c-0.77749,-0.8461 -1.61215,-1.45208 -2.50399,-1.81796c-0.89183,-0.36588 -2.16097,-0.78893 -3.80743,-1.26914c-1.64646,-0.48022 -2.90417,-0.89183 -3.77313,-1.23484c-0.86896,-0.34301 -1.898,-0.8804 -3.0871,-1.61215c-2.24101,-1.37205 -3.36151,-3.71596 -3.36151,-7.03174c0,-3.31578 1.1205,-5.81976 3.36151,-7.51196c2.24101,-1.69219 4.87077,-2.53829 7.88927,-2.53829c1.87513,0 3.76169,0.25154 5.65969,0.75463c1.898,0.50308 3.32721,1.02903 4.28765,1.57785l-1.92087,4.18474c-2.19527,-1.18911 -4.87077,-1.78366 -8.02647,-1.78366c-1.60072,0 -3.00707,0.42305 -4.21904,1.26914c-1.21197,0.8461 -1.81796,1.92087 -1.81796,3.22431c0,1.30344 0.36588,2.32105 1.09764,3.0528c0.73176,0.73176 1.48638,1.25771 2.26388,1.57785c0.77749,0.32014 1.9666,0.70889 3.56732,1.16624c1.60072,0.45735 2.89273,0.8804 3.87603,1.26914c0.9833,0.38875 2.09237,0.99473 3.32721,1.81796c2.37821,1.60072 3.56732,4.12757 3.56732,7.58056c0,3.45298 -1.17767,6.07131 -3.53302,7.85497c-2.35535,1.78366 -5.29381,2.67549 -8.8154,2.67549c-4.75643,0 -8.7811,-1.53212 -12.07401,-4.59636l2.8127,-3.77313c2.51542,2.42395 5.60252,3.63592 9.26131,3.63592z" data-paper-data="{&quot;elementType&quot;:&quot;letter&quot;,&quot;baseline&quot;:51.400000000000006,&quot;baselineProportion&quot;:0.9734848484848484,&quot;fontSize&quot;:100}"></path></g></g></g></g></g></svg>