<svg version="1.1" xmlns="http://www.w3.org/2000/svg" xmlns:xlink="http://www.w3.org/1999/xlink" width="500" height="500"><g data-paper-data="{&quot;description&quot;:&quot;Logo for save for happiness\n===========================\n\nThis logo was generated by MarkMaker at http://emblemmatic.org/markmaker/ and may be composed of elements designed by others.\n\nThe font is Fresca-Regular designed by Fontstage and released under the OFL license via Google Fonts: https://www.google.com/fonts/specimen/Fresca. The font includes this copyright statement: Copyright (c) 2011 Fontstage (info@fontstage.com), with Reserved Font Name \\\&quot;Fresca\\\n\nMarkMaker uses semantic data from the Princeton University WordNet database http://wordnet.princeton.edu and font descriptions from Google Fonts https://www.google.com/fonts.&quot;}" fill="none" fill-rule="nonzero" stroke="none" stroke-width="1" stroke-linecap="butt" stroke-linejoin="miter" stroke-miterlimit="10" stroke-dasharray="" stroke-dashoffset="0" font-family="none" font-weight="none" font-size="none" text-anchor="none" style="mix-blend-mode: normal"><g data-paper-data="{&quot;elementType&quot;:&quot;logo&quot;}"><g data-paper-data="{&quot;elementType&quot;:&quot;text&quot;}"><g data-paper-data="{&quot;baseline&quot;:73.4,&quot;elementType&quot;:&quot;row&quot;}"><g data-paper-data="{&quot;baselineProportion&quot;:0.9836734693877551,&quot;fontSize&quot;:100,&quot;baseline&quot;:48.2,&quot;elementType&quot;:&quot;word&quot;}" fill="#96a5a5"><path d="M52.43455,256.32453c0.98793,1.02322 2.30224,1.87884 3.94291,2.56686c1.64067,0.68802 3.16668,1.03204 4.57801,1.03204c1.41133,0 2.49629,-0.35283 3.25489,-1.0585c0.75859,-0.70567 1.13789,-1.49072 1.13789,-2.35516c0,-0.86444 -0.49397,-1.51718 -1.4819,-1.95822c-0.98793,-0.44104 -2.17874,-0.79387 -3.57244,-1.0585c-1.39369,-0.26462 -2.78738,-0.60864 -4.18107,-1.03204c-1.39369,-0.4234 -2.5845,-1.14671 -3.57244,-2.16992c-0.98793,-1.02322 -1.4819,-2.36398 -1.4819,-4.0223c0,-2.5404 0.87326,-4.56919 2.61979,-6.08637c1.74652,-1.51718 3.83706,-2.27577 6.27161,-2.27577c3.70475,0 6.84496,1.04086 9.42065,3.12257l-1.95822,3.54597c-0.8468,-0.74095 -2.04643,-1.41133 -3.5989,-2.01115c-1.55247,-0.59982 -3.01672,-0.89972 -4.39277,-0.89972c-1.37605,0 -2.48747,0.36165 -3.33427,1.08496c-0.8468,0.72331 -1.2702,1.75535 -1.2702,3.09611c0,0.81152 0.50279,1.45544 1.50836,1.93176c1.00557,0.47632 2.23167,0.86444 3.67829,1.16435c1.44662,0.29991 2.90205,0.66156 4.36631,1.08496c1.46426,0.4234 2.69917,1.12907 3.70475,2.117c1.00557,0.98793 1.50836,2.25813 1.50836,3.8106c0,2.22285 -0.83798,4.03112 -2.51394,5.42481c-1.67596,1.39369 -3.65182,2.09054 -5.9276,2.09054c-2.27577,0 -4.39277,-0.36165 -6.351,-1.08496c-1.95822,-0.72331 -3.55479,-1.66714 -4.78971,-2.83149c0.4234,-0.49397 1.23492,-1.57011 2.43455,-3.22842z" data-paper-data="{&quot;elementType&quot;:&quot;letter&quot;,&quot;baseline&quot;:48.1,&quot;baselineProportion&quot;:0.9958592132505175,&quot;fontSize&quot;:100}"></path><path d="M82.28424,263.78696c-2.29342,0 -4.17225,-0.6792 -5.63651,-2.03761c-1.46426,-1.35841 -2.19639,-3.18432 -2.19639,-5.47774c0,-2.29342 0.82916,-4.16343 2.48747,-5.61005c1.65832,-1.44662 3.61654,-2.16992 5.87467,-2.16992c2.25813,0 4.18107,0.72331 5.76882,2.16992v-2.01115c0,-2.18757 -0.43222,-3.88999 -1.29666,-5.10726c-0.86444,-1.21727 -1.93176,-1.82591 -3.20196,-1.82591c-1.2702,0 -2.3728,0.29109 -3.30781,0.87326c-0.93501,0.58217 -1.91412,1.47308 -2.93734,2.67271l-2.38162,-2.69917c2.39927,-3.10493 5.41599,-4.6574 9.05017,-4.6574c5.7159,0 8.57385,3.22842 8.57385,9.68527c0,6.45685 0.01764,11.7317 0.05292,15.82457h-3.75767l-0.15877,-2.3287l-0.15877,-0.10585c-0.49397,0.70567 -1.40251,1.34959 -2.72564,1.93176c-1.32312,0.58217 -2.67271,0.87326 -4.04876,0.87326M88.63523,255.95406c-0.03528,-1.2702 -0.56453,-2.25813 -1.58775,-2.9638c-1.02322,-0.70567 -2.25813,-1.0585 -3.70475,-1.0585c-1.44662,0 -2.57568,0.40576 -3.3872,1.21727c-0.81152,0.81152 -1.21727,1.78181 -1.21727,2.91087c0,1.12907 0.41458,2.10818 1.24374,2.93734c0.82916,0.82916 1.96705,1.24374 3.41366,1.24374c1.44662,0 2.67271,-0.36165 3.67829,-1.08496c1.00557,-0.72331 1.526,-1.79063 1.56129,-3.20196z" data-paper-data="{&quot;elementType&quot;:&quot;letter&quot;,&quot;baseline&quot;:48.1,&quot;baselineProportion&quot;:0.9836400817995911,&quot;fontSize&quot;:100}"></path><path d="M116.15622,237.95957l4.76325,0.79387c-0.10585,0.31755 -3.03437,8.50328 -8.78555,24.55719l-4.71032,0.4234c-5.36306,-13.61936 -8.62677,-21.94622 -9.79112,-24.98059l5.0808,-0.89972l7.1978,20.53489z" data-paper-data="{&quot;elementType&quot;:&quot;letter&quot;,&quot;baseline&quot;:48.2,&quot;baselineProportion&quot;:0.985685071574642,&quot;fontSize&quot;:100}"></path><path d="M145.58251,252.56686l-15.61287,0.10585c0,2.25813 0.6351,4.0664 1.9053,5.42481c1.2702,1.35841 2.69917,2.03761 4.28692,2.03761c1.58775,0 2.95498,-0.2558 4.10169,-0.76741c1.14671,-0.51161 1.96705,-1.0144 2.46101,-1.50836l0.68802,-0.79387l2.16992,2.85795c-2.04643,2.46983 -5.22193,3.70475 -9.5265,3.70475c-3.45777,0 -6.08637,-1.04086 -7.88582,-3.12257c-1.79945,-2.08172 -2.69917,-4.94849 -2.69917,-8.60031c0,-3.65182 1.13789,-6.86261 3.41366,-9.63235c2.27577,-2.76974 5.19547,-4.15461 8.75908,-4.15461c2.85795,0 4.94849,0.97911 6.27161,2.93734c1.32312,1.95822 1.98469,4.50744 1.98469,7.64766c0,1.30548 -0.10585,2.59332 -0.31755,3.86352M141.77191,249.55014c0,-2.5404 -0.3793,-4.46334 -1.13789,-5.76882c-0.75859,-1.30548 -2.09936,-1.95822 -4.0223,-1.95822c-1.92294,0 -3.51069,0.83798 -4.76325,2.51394c-1.25256,1.67596 -1.89648,3.44894 -1.93176,5.31896z" data-paper-data="{&quot;elementType&quot;:&quot;letter&quot;,&quot;baseline&quot;:47.7,&quot;baselineProportion&quot;:0.9896265560165975,&quot;fontSize&quot;:100}"></path></g><g data-paper-data="{&quot;baselineProportion&quot;:0.9905533063427799,&quot;fontSize&quot;:100,&quot;baseline&quot;:73.4,&quot;elementType&quot;:&quot;word&quot;}" fill="#176060"><path d="M158.41332,263.62818l0.2117,-21.80509l-3.49305,0.10585l0.15877,-1.58775l3.75767,-2.48747c0,-3.74003 0.72331,-6.89789 2.16992,-9.47357c1.44662,-2.57568 3.58126,-3.86352 6.40392,-3.86352c1.76417,0 3.37838,0.14113 4.84264,0.4234c1.46426,0.28227 2.49629,0.56453 3.09611,0.8468l0.89972,0.47632l-1.21727,4.39277c-2.08172,-1.2702 -4.234,-1.9053 -6.45685,-1.9053c-3.70475,0 -5.55712,3.01672 -5.55712,9.05017l8.15045,-0.31755l-0.79387,4.49862l-7.51535,-0.15877l0.10585,21.16999z" data-paper-data="{&quot;elementType&quot;:&quot;letter&quot;,&quot;baseline&quot;:73.4,&quot;baselineProportion&quot;:0.993234100135318,&quot;fontSize&quot;:100}"></path><path d="M186.41064,238.06542c6.38628,0 9.57942,4.0223 9.57942,12.0669c0,3.98702 -1.00557,7.25072 -3.01672,9.79112c-2.01115,2.5404 -4.66622,3.8106 -7.96521,3.8106c-3.29899,0 -5.80411,-1.1026 -7.51535,-3.30781c-1.71124,-2.20521 -2.56686,-5.16019 -2.56686,-8.86493c0,-2.117 0.40576,-4.17225 1.21727,-6.16576c0.81152,-1.99351 2.12582,-3.71357 3.94291,-5.16019c1.81709,-1.44662 3.92527,-2.16992 6.32453,-2.16992M179.10699,250.76741c0,0 0,0.62628 0,1.87884c0,1.25256 0.52925,2.77856 1.58775,4.57801c1.0585,1.79945 2.54922,2.69917 4.47216,2.69917c1.92294,0 3.45777,-0.78505 4.60447,-2.35516c1.14671,-1.57011 1.72006,-3.80178 1.72006,-6.69501c0,-6.06873 -1.81709,-9.1031 -5.45127,-9.1031c-2.25813,0 -3.97819,0.87326 -5.16019,2.61979c-1.18199,1.74652 -1.77299,3.87234 -1.77299,6.37746z" data-paper-data="{&quot;elementType&quot;:&quot;letter&quot;,&quot;baseline&quot;:47.800000000000004,&quot;baselineProportion&quot;:0.9855670103092783,&quot;fontSize&quot;:100}"></path><path d="M202.76446,238.54174l3.8106,-0.4234l0.47632,5.02787l0.31755,-0.05292c1.87002,-3.52833 4.32221,-5.2925 7.35657,-5.2925c1.41133,0 2.85795,0.44104 4.33985,1.32312l-1.85237,4.07522c-1.2702,-0.81152 -2.49629,-1.21727 -3.67829,-1.21727c-1.18199,0 -2.23167,0.52043 -3.14904,1.56129c-0.91737,1.04086 -1.63185,2.45219 -2.14346,4.234c-0.51161,1.78181 -0.76741,3.87234 -0.76741,6.27161c0,2.39927 0.08821,5.5042 0.26462,9.3148l-4.92202,0.2117c0.07057,-5.7159 0.10585,-10.44386 0.10585,-14.18389z" data-paper-data="{&quot;elementType&quot;:&quot;letter&quot;,&quot;baseline&quot;:48.300000000000004,&quot;baselineProportion&quot;:0.9917864476386036,&quot;fontSize&quot;:100}"></path></g><g data-paper-data="{&quot;baselineProportion&quot;:0.7614583333333333,&quot;fontSize&quot;:100,&quot;baseline&quot;:73.10000000000001,&quot;elementType&quot;:&quot;word&quot;}" fill="#176060"><path d="M253.91295,246.69219l-0.10585,9.15602l0.26462,7.46242l-4.8691,0.31755c0.14113,-6.7744 0.2117,-11.48472 0.2117,-14.13097c0,-2.64625 -0.36165,-4.4898 -1.08496,-5.53066c-0.72331,-1.04086 -1.6936,-1.56129 -2.91087,-1.56129c-1.21727,0 -2.49629,0.6351 -3.83706,1.9053c-1.34077,1.2702 -2.30224,2.77856 -2.88441,4.52509c-0.58217,1.74652 -0.87326,4.4898 -0.87326,8.22983c0,3.74003 0.07057,5.82175 0.2117,6.24515l-4.8691,0.31755c-0.14113,-8.99725 -0.2117,-15.35706 -0.2117,-19.07945c0,-3.72239 -0.10585,-8.97078 -0.31755,-15.74518l-4.07522,0.31755l-0.26462,-4.07522l9.15602,-0.37047v19.37054l0.4234,0.10585c0.28227,-0.49397 0.81152,-1.15553 1.58775,-1.98469c0.77623,-0.82916 1.49954,-1.51718 2.16992,-2.06407c0.67038,-0.54689 1.49072,-1.04086 2.46101,-1.4819c0.97029,-0.44104 1.91412,-0.66156 2.83149,-0.66156c2.39927,0 4.16343,0.82034 5.2925,2.46101c1.12907,1.64067 1.6936,3.73121 1.6936,6.27161z" data-paper-data="{&quot;elementType&quot;:&quot;letter&quot;,&quot;baseline&quot;:73.10000000000001,&quot;baselineProportion&quot;:0.9932065217391305,&quot;fontSize&quot;:100}"></path><path d="M268.30855,263.78696c-2.29342,0 -4.17225,-0.6792 -5.63651,-2.03761c-1.46426,-1.35841 -2.19639,-3.18432 -2.19639,-5.47774c0,-2.29342 0.82916,-4.16343 2.48747,-5.61005c1.65832,-1.44662 3.61654,-2.16992 5.87467,-2.16992c2.25813,0 4.18107,0.72331 5.76882,2.16992v-2.01115c0,-2.18757 -0.43222,-3.88999 -1.29666,-5.10726c-0.86444,-1.21727 -1.93176,-1.82591 -3.20196,-1.82591c-1.2702,0 -2.3728,0.29109 -3.30781,0.87326c-0.93501,0.58217 -1.91412,1.47308 -2.93734,2.67271l-2.38162,-2.69917c2.39927,-3.10493 5.41599,-4.6574 9.05017,-4.6574c5.7159,0 8.57385,3.22842 8.57385,9.68527c0,6.45685 0.01764,11.7317 0.05292,15.82457h-3.75767l-0.15877,-2.3287l-0.15877,-0.10585c-0.49397,0.70567 -1.40251,1.34959 -2.72564,1.93176c-1.32312,0.58217 -2.67271,0.87326 -4.04876,0.87326M274.65954,255.95406c-0.03528,-1.2702 -0.56453,-2.25813 -1.58775,-2.9638c-1.02322,-0.70567 -2.25813,-1.0585 -3.70475,-1.0585c-1.44662,0 -2.57568,0.40576 -3.3872,1.21727c-0.81152,0.81152 -1.21727,1.78181 -1.21727,2.91087c0,1.12907 0.41458,2.10818 1.24374,2.93734c0.82916,0.82916 1.96705,1.24374 3.41366,1.24374c1.44662,0 2.67271,-0.36165 3.67829,-1.08496c1.00557,-0.72331 1.526,-1.79063 1.56129,-3.20196z" data-paper-data="{&quot;elementType&quot;:&quot;letter&quot;,&quot;baseline&quot;:48.1,&quot;baselineProportion&quot;:0.9836400817995911,&quot;fontSize&quot;:100}"></path><path d="M285.29747,253.73121l-0.31755,-14.55437l3.3872,-0.6351l0.74095,3.91645l0.47632,0.10585c0.95265,-0.98793 1.72006,-1.72888 2.30224,-2.22285c0.58217,-0.49397 1.41133,-0.96147 2.48747,-1.40251c1.07614,-0.44104 2.26695,-0.66156 3.57244,-0.66156c2.82267,0 4.99259,0.94383 6.50977,2.83149c1.51718,1.88766 2.27577,4.13697 2.27577,6.74793c0,2.61097 -0.44986,5.04551 -1.34959,7.30365c-0.89972,2.25813 -2.26695,4.18989 -4.10169,5.79529c-1.83473,1.60539 -3.8547,2.40809 -6.05991,2.40809c-2.20521,0 -4.11933,-0.68802 -5.74236,-2.06407l0.31755,13.81342l-4.92202,0.37047c0.28227,-11.6435 0.4234,-18.89422 0.4234,-21.75217M289.16099,251.37605c0,0 0,0.64833 0,1.94499c0,1.29666 0.56453,2.61538 1.6936,3.95614c1.12907,1.34077 2.65507,2.01115 4.57801,2.01115c1.92294,0 3.51951,-1.08496 4.78971,-3.25489c1.2702,-2.16992 1.9053,-4.36631 1.9053,-6.58916c0,-2.22285 -0.44986,-3.97819 -1.34959,-5.26604c-0.89972,-1.28784 -2.3287,-1.93176 -4.28692,-1.93176c-1.95822,0 -3.66947,0.87326 -5.13372,2.61979c-1.46426,1.74652 -2.19639,3.91645 -2.19639,6.50977z" data-paper-data="{&quot;elementType&quot;:&quot;letter&quot;,&quot;baseline&quot;:47.400000000000006,&quot;baselineProportion&quot;:0.67425320056899,&quot;fontSize&quot;:100}"></path><path d="M312.9243,253.73121l-0.31755,-14.55437l3.3872,-0.6351l0.74095,3.91645l0.47632,0.10585c0.95265,-0.98793 1.72006,-1.72888 2.30224,-2.22285c0.58217,-0.49397 1.41133,-0.96147 2.48747,-1.40251c1.07614,-0.44104 2.26695,-0.66156 3.57244,-0.66156c2.82267,0 4.99259,0.94383 6.50977,2.83149c1.51718,1.88766 2.27577,4.13697 2.27577,6.74793c0,2.61097 -0.44986,5.04551 -1.34959,7.30365c-0.89972,2.25813 -2.26695,4.18989 -4.10169,5.79529c-1.83473,1.60539 -3.8547,2.40809 -6.05991,2.40809c-2.20521,0 -4.11933,-0.68802 -5.74236,-2.06407l0.31755,13.81342l-4.92202,0.37047c0.28227,-11.6435 0.4234,-18.89422 0.4234,-21.75217M316.78783,251.37605c0,0 0,0.64833 0,1.94499c0,1.29666 0.56453,2.61538 1.6936,3.95614c1.12907,1.34077 2.65507,2.01115 4.57801,2.01115c1.92294,0 3.51951,-1.08496 4.78971,-3.25489c1.2702,-2.16992 1.9053,-4.36631 1.9053,-6.58916c0,-2.22285 -0.44986,-3.97819 -1.34959,-5.26604c-0.89972,-1.28784 -2.3287,-1.93176 -4.28692,-1.93176c-1.95822,0 -3.66947,0.87326 -5.13372,2.61979c-1.46426,1.74652 -2.19639,3.91645 -2.19639,6.50977z" data-paper-data="{&quot;elementType&quot;:&quot;letter&quot;,&quot;baseline&quot;:47.400000000000006,&quot;baselineProportion&quot;:0.67425320056899,&quot;fontSize&quot;:100}"></path><path d="M338.75169,241.29384l0.15877,-3.49305h7.88582v25.56276l-4.18107,0.2117c0,-3.42248 -0.07057,-7.57709 -0.2117,-12.46383c-0.14113,-4.88674 -0.22934,-8.19455 -0.26462,-9.92343l-3.3872,0.10585M347.80187,231.76734c0,0.95265 -0.29109,1.74652 -0.87326,2.38162c-0.58217,0.6351 -1.36723,0.95265 -2.35516,0.95265c-0.98793,0 -1.75535,-0.22052 -2.30224,-0.66156c-0.54689,-0.44104 -0.82034,-1.07614 -0.82034,-1.9053c0,-0.82916 0.33519,-1.56129 1.00557,-2.19639c0.67038,-0.6351 1.55247,-0.95265 2.64625,-0.95265c1.79945,0 2.69917,0.79387 2.69917,2.38162z" data-paper-data="{&quot;elementType&quot;:&quot;letter&quot;,&quot;baseline&quot;:64.2,&quot;baselineProportion&quot;:0.9938080495356036,&quot;fontSize&quot;:100}"></path><path d="M358.81026,244.73396c3.63418,-4.55155 6.93317,-6.82732 9.89697,-6.82732c4.16343,0 6.24515,2.92852 6.24515,8.78555v5.18665c0,5.82175 0.05292,9.63235 0.15877,11.4318l-4.60447,0.31755c0.14113,-6.7744 0.2117,-11.45826 0.2117,-14.05158c0,-2.59332 -0.2117,-4.45452 -0.6351,-5.58359c-0.4234,-1.12907 -1.27902,-1.6936 -2.56686,-1.6936c-1.28784,0 -2.7962,0.8468 -4.52509,2.5404c-1.72888,1.6936 -2.84031,3.49305 -3.33427,5.39835c-0.49397,1.9053 -0.74095,4.51626 -0.74095,7.8329l0.26462,5.23957l-4.71032,0.31755c-0.07057,-8.64441 -0.10585,-13.97219 -0.10585,-15.98334l-0.26462,-8.8914l3.54597,-0.15877l0.79387,6.08637z" data-paper-data="{&quot;elementType&quot;:&quot;letter&quot;,&quot;baseline&quot;:48.1,&quot;baselineProportion&quot;:0.9897119341563786,&quot;fontSize&quot;:100}"></path><path d="M401.57364,252.56686l-15.61287,0.10585c0,2.25813 0.6351,4.0664 1.9053,5.42481c1.2702,1.35841 2.69917,2.03761 4.28692,2.03761c1.58775,0 2.95498,-0.2558 4.10169,-0.76741c1.14671,-0.51161 1.96705,-1.0144 2.46101,-1.50836l0.68802,-0.79387l2.16992,2.85795c-2.04643,2.46983 -5.22193,3.70475 -9.5265,3.70475c-3.45777,0 -6.08637,-1.04086 -7.88582,-3.12257c-1.79945,-2.08172 -2.69917,-4.94849 -2.69917,-8.60031c0,-3.65182 1.13789,-6.86261 3.41366,-9.63235c2.27577,-2.76974 5.19547,-4.15461 8.75908,-4.15461c2.85795,0 4.94849,0.97911 6.27161,2.93734c1.32312,1.95822 1.98469,4.50744 1.98469,7.64766c0,1.30548 -0.10585,2.59332 -0.31755,3.86352M397.76305,249.55014c0,-2.5404 -0.3793,-4.46334 -1.13789,-5.76882c-0.75859,-1.30548 -2.09936,-1.95822 -4.0223,-1.95822c-1.92294,0 -3.51069,0.83798 -4.76325,2.51394c-1.25256,1.67596 -1.89648,3.44894 -1.93176,5.31896z" data-paper-data="{&quot;elementType&quot;:&quot;letter&quot;,&quot;baseline&quot;:47.7,&quot;baselineProportion&quot;:0.9896265560165975,&quot;fontSize&quot;:100}"></path><path d="M408.87729,256.32453c0.98793,1.02322 2.30224,1.87884 3.94291,2.56686c1.64067,0.68802 3.16668,1.03204 4.57801,1.03204c1.41133,0 2.49629,-0.35283 3.25489,-1.0585c0.75859,-0.70567 1.13789,-1.49072 1.13789,-2.35516c0,-0.86444 -0.49397,-1.51718 -1.4819,-1.95822c-0.98793,-0.44104 -2.17874,-0.79387 -3.57244,-1.0585c-1.39369,-0.26462 -2.78738,-0.60864 -4.18107,-1.03204c-1.39369,-0.4234 -2.5845,-1.14671 -3.57244,-2.16992c-0.98793,-1.02322 -1.4819,-2.36398 -1.4819,-4.0223c0,-2.5404 0.87326,-4.56919 2.61979,-6.08637c1.74652,-1.51718 3.83706,-2.27577 6.27161,-2.27577c3.70475,0 6.84496,1.04086 9.42065,3.12257l-1.95822,3.54597c-0.8468,-0.74095 -2.04643,-1.41133 -3.5989,-2.01115c-1.55247,-0.59982 -3.01672,-0.89972 -4.39277,-0.89972c-1.37605,0 -2.48747,0.36165 -3.33427,1.08496c-0.8468,0.72331 -1.2702,1.75535 -1.2702,3.09611c0,0.81152 0.50279,1.45544 1.50836,1.93176c1.00557,0.47632 2.23167,0.86444 3.67829,1.16435c1.44662,0.29991 2.90205,0.66156 4.36631,1.08496c1.46426,0.4234 2.69917,1.12907 3.70475,2.117c1.00557,0.98793 1.50836,2.25813 1.50836,3.8106c0,2.22285 -0.83798,4.03112 -2.51394,5.42481c-1.67596,1.39369 -3.65182,2.09054 -5.9276,2.09054c-2.27577,0 -4.39277,-0.36165 -6.351,-1.08496c-1.95822,-0.72331 -3.55479,-1.66714 -4.78971,-2.83149c0.4234,-0.49397 1.23492,-1.57011 2.43455,-3.22842z" data-paper-data="{&quot;elementType&quot;:&quot;letter&quot;,&quot;baseline&quot;:48.1,&quot;baselineProportion&quot;:0.9958592132505175,&quot;fontSize&quot;:100}"></path><path d="M432.85231,256.32453c0.98793,1.02322 2.30224,1.87884 3.94291,2.56686c1.64067,0.68802 3.16668,1.03204 4.57801,1.03204c1.41133,0 2.49629,-0.35283 3.25489,-1.0585c0.75859,-0.70567 1.13789,-1.49072 1.13789,-2.35516c0,-0.86444 -0.49397,-1.51718 -1.4819,-1.95822c-0.98793,-0.44104 -2.17874,-0.79387 -3.57244,-1.0585c-1.39369,-0.26462 -2.78738,-0.60864 -4.18107,-1.03204c-1.39369,-0.4234 -2.5845,-1.14671 -3.57244,-2.16992c-0.98793,-1.02322 -1.4819,-2.36398 -1.4819,-4.0223c0,-2.5404 0.87326,-4.56919 2.61979,-6.08637c1.74652,-1.51718 3.83706,-2.27577 6.27161,-2.27577c3.70475,0 6.84496,1.04086 9.42065,3.12257l-1.95822,3.54597c-0.8468,-0.74095 -2.04643,-1.41133 -3.5989,-2.01115c-1.55247,-0.59982 -3.01672,-0.89972 -4.39277,-0.89972c-1.37605,0 -2.48747,0.36165 -3.33427,1.08496c-0.8468,0.72331 -1.2702,1.75535 -1.2702,3.09611c0,0.81152 0.50279,1.45544 1.50836,1.93176c1.00557,0.47632 2.23167,0.86444 3.67829,1.16435c1.44662,0.29991 2.90205,0.66156 4.36631,1.08496c1.46426,0.4234 2.69917,1.12907 3.70475,2.117c1.00557,0.98793 1.50836,2.25813 1.50836,3.8106c0,2.22285 -0.83798,4.03112 -2.51394,5.42481c-1.67596,1.39369 -3.65182,2.09054 -5.9276,2.09054c-2.27577,0 -4.39277,-0.36165 -6.351,-1.08496c-1.95822,-0.72331 -3.55479,-1.66714 -4.78971,-2.83149c0.4234,-0.49397 1.23492,-1.57011 2.43455,-3.22842z" data-paper-data="{&quot;elementType&quot;:&quot;letter&quot;,&quot;baseline&quot;:48.1,&quot;baselineProportion&quot;:0.9958592132505175,&quot;fontSize&quot;:100}"></path></g></g></g></g></g></svg>